<?xml version="1.0" encoding="UTF-8" standalone="no"?>
<!DOCTYPE svg PUBLIC "-//W3C//DTD SVG 1.1//EN"
 "http://www.w3.org/Graphics/SVG/1.1/DTD/svg11.dtd">
<!-- Generated by graphviz version 2.40.1 (20161225.0304)
 -->
<!-- Title: call~~graph~~CallGraph Pages: 1 -->
<svg width="396pt" height="94pt"
 viewBox="0.00 0.00 396.00 94.00" xmlns="http://www.w3.org/2000/svg" xmlns:xlink="http://www.w3.org/1999/xlink">
<g id="call~~graph~~CallGraph" class="graph" transform="scale(1 1) rotate(0) translate(4 90)">
<title>call~~graph~~CallGraph</title>
<polygon fill="#ffffff" stroke="transparent" points="-4,4 -4,-90 392,-90 392,4 -4,4"/>
<!-- proc~c_f_string -->
<g id="call~~graph~~CallGraph_node1" class="node">
<title>proc~c_f_string</title>
<g id="a_call~~graph~~CallGraph_node1"><a xlink:href="../proc/c_f_string.html" xlink:title="c_f_string">
<polygon fill="#d9534f" stroke="#d9534f" points="252,-65 198,-65 198,-41 252,-41 252,-65"/>
<text text-anchor="middle" x="225" y="-50.6" font-family="Helvetica,sans-Serif" font-size="10.50" fill="#ffffff">c_f_string</text>
</a>
</g>
</g>
<!-- interface~strlen -->
<g id="call~~graph~~CallGraph_node4" class="node">
<title>interface~strlen</title>
<g id="a_call~~graph~~CallGraph_node4"><a xlink:href="../interface/strlen.html" xlink:title="strlen">
<polygon fill="#a7506f" stroke="#a7506f" points="365,-86 311,-86 311,-62 365,-62 365,-86"/>
<text text-anchor="middle" x="338" y="-71.6" font-family="Helvetica,sans-Serif" font-size="10.50" fill="#ffffff">strlen</text>
</a>
</g>
</g>
<!-- proc~c_f_string&#45;&gt;interface~strlen -->
<g id="call~~graph~~CallGraph_edge1" class="edge">
<title>proc~c_f_string&#45;&gt;interface~strlen</title>
<path fill="none" stroke="#000000" d="M252.0663,-58.03C266.6348,-60.7374 284.8257,-64.118 300.7149,-67.0709"/>
<polygon fill="#000000" stroke="#000000" points="300.2917,-70.5521 310.7629,-68.9382 301.5708,-63.67 300.2917,-70.5521"/>
</g>
<!-- none~char_array_to_scalar_ptr -->
<g id="call~~graph~~CallGraph_node6" class="node">
<title>none~char_array_to_scalar_ptr</title>
<polygon fill="#d9534f" stroke="#d9534f" points="388,-44 288,-44 288,-20 388,-20 388,-44"/>
<text text-anchor="middle" x="338" y="-29.6" font-family="Helvetica,sans-Serif" font-size="10.50" fill="#ffffff">char_array_to_scalar_ptr</text>
</g>
<!-- proc~c_f_string&#45;&gt;none~char_array_to_scalar_ptr -->
<g id="call~~graph~~CallGraph_edge2" class="edge">
<title>proc~c_f_string&#45;&gt;none~char_array_to_scalar_ptr</title>
<path fill="none" stroke="#000000" d="M252.0663,-47.97C259.8464,-46.5241 268.6595,-44.8863 277.6035,-43.2241"/>
<polygon fill="#000000" stroke="#000000" points="278.5169,-46.6144 287.709,-41.3461 277.2379,-39.7322 278.5169,-46.6144"/>
</g>
<!-- interface~speciesname_c -->
<g id="call~~graph~~CallGraph_node2" class="node">
<title>interface~speciesname_c</title>
<g id="a_call~~graph~~CallGraph_node2"><a xlink:href="../interface/speciesname_c.html" xlink:title="SpeciesName_C">
<polygon fill="#a7506f" stroke="#a7506f" points="162,-66 90,-66 90,-42 162,-42 162,-66"/>
<text text-anchor="middle" x="126" y="-51.6" font-family="Helvetica,sans-Serif" font-size="10.50" fill="#ffffff">SpeciesName_C</text>
</a>
</g>
</g>
<!-- proc~c_str_to_fortran -->
<g id="call~~graph~~CallGraph_node3" class="node">
<title>proc~c_str_to_fortran</title>
<g id="a_call~~graph~~CallGraph_node3"><a xlink:href="../proc/c_str_to_fortran.html" xlink:title="c_str_to_fortran">
<polygon fill="#d94e8f" stroke="#d94e8f" points="160,-24 92,-24 92,0 160,0 160,-24"/>
<text text-anchor="middle" x="126" y="-9.6" font-family="Helvetica,sans-Serif" font-size="10.50" fill="#ffffff">c_str_to_fortran</text>
</a>
</g>
</g>
<!-- proc~c_str_to_fortran&#45;&gt;proc~c_f_string -->
<g id="call~~graph~~CallGraph_edge3" class="edge">
<title>proc~c_str_to_fortran&#45;&gt;proc~c_f_string</title>
<path fill="none" stroke="#000000" d="M155.1678,-24.0796C165.5787,-28.3912 177.4419,-33.3042 188.3988,-37.8419"/>
<polygon fill="#000000" stroke="#000000" points="187.1567,-41.1157 197.7349,-41.7084 189.8351,-34.6484 187.1567,-41.1157"/>
</g>
<!-- program~main -->
<g id="call~~graph~~CallGraph_node5" class="node">
<title>program~main</title>
<g id="a_call~~graph~~CallGraph_node5"><a xlink:href="../program/main.html" xlink:title="main">
<polygon fill="#f0ad4e" stroke="#f0ad4e" points="54,-66 0,-66 0,-42 54,-42 54,-66"/>
<text text-anchor="middle" x="27" y="-51.6" font-family="Helvetica,sans-Serif" font-size="10.50" fill="#ffffff">main</text>
</a>
</g>
</g>
<!-- program~main&#45;&gt;proc~c_f_string -->
<g id="call~~graph~~CallGraph_edge6" class="edge">
<title>program~main&#45;&gt;proc~c_f_string</title>
<path fill="none" stroke="#000000" d="M54.1165,-65.1641C65.0624,-69.1056 77.9369,-73.0424 90,-75 121.5868,-80.1258 130.4504,-80.3502 162,-75 170.7022,-73.5243 179.8047,-70.9784 188.2984,-68.13"/>
<polygon fill="#000000" stroke="#000000" points="189.6872,-71.3506 197.9292,-64.6933 187.3345,-64.7578 189.6872,-71.3506"/>
</g>
<!-- program~main&#45;&gt;interface~speciesname_c -->
<g id="call~~graph~~CallGraph_edge5" class="edge">
<title>program~main&#45;&gt;interface~speciesname_c</title>
<path fill="none" stroke="#000000" d="M54.0522,-54C61.9527,-54 70.8212,-54 79.5618,-54"/>
<polygon fill="#000000" stroke="#000000" points="79.6982,-57.5001 89.6982,-54 79.6982,-50.5001 79.6982,-57.5001"/>
</g>
<!-- program~main&#45;&gt;proc~c_str_to_fortran -->
<g id="call~~graph~~CallGraph_edge4" class="edge">
<title>program~main&#45;&gt;proc~c_str_to_fortran</title>
<path fill="none" stroke="#000000" d="M54.0522,-42.5233C64.6077,-38.0452 76.891,-32.8341 88.2888,-27.9987"/>
<polygon fill="#000000" stroke="#000000" points="89.7585,-31.1772 97.5974,-24.0496 87.0247,-24.7331 89.7585,-31.1772"/>
</g>
</g>
</svg>
