<?xml version="1.0" encoding="UTF-8" standalone="no"?>
<!DOCTYPE svg PUBLIC "-//W3C//DTD SVG 1.1//EN"
 "http://www.w3.org/Graphics/SVG/1.1/DTD/svg11.dtd">
<!-- Generated by graphviz version 2.40.1 (20161225.0304)
 -->
<!-- Title: module~~graph~~ModuleGraph Pages: 1 -->
<svg width="201pt" height="158pt"
 viewBox="0.00 0.00 201.00 158.00" xmlns="http://www.w3.org/2000/svg" xmlns:xlink="http://www.w3.org/1999/xlink">
<g id="module~~graph~~ModuleGraph" class="graph" transform="scale(1 1) rotate(0) translate(4 154)">
<title>module~~graph~~ModuleGraph</title>
<polygon fill="#ffffff" stroke="transparent" points="-4,4 -4,-154 197,-154 197,4 -4,4"/>
<!-- module~c_f_string_m -->
<g id="module~~graph~~ModuleGraph_node1" class="node">
<title>module~c_f_string_m</title>
<g id="a_module~~graph~~ModuleGraph_node1"><a xlink:href="../module/c_f_string_m.html" xlink:title="c_f_string_m">
<polygon fill="#337ab7" stroke="#337ab7" points="73.5,-150 15.5,-150 15.5,-126 73.5,-126 73.5,-150"/>
<text text-anchor="middle" x="44.5" y="-135.6" font-family="Helvetica,sans-Serif" font-size="10.50" fill="#ffffff">c_f_string_m</text>
</a>
</g>
</g>
<!-- program~main -->
<g id="module~~graph~~ModuleGraph_node2" class="node">
<title>program~main</title>
<g id="a_module~~graph~~ModuleGraph_node2"><a xlink:href="../program/main.html" xlink:title="main">
<polygon fill="#f0ad4e" stroke="#f0ad4e" points="186,-108 132,-108 132,-84 186,-84 186,-108"/>
<text text-anchor="middle" x="159" y="-93.6" font-family="Helvetica,sans-Serif" font-size="10.50" fill="#ffffff">main</text>
</a>
</g>
</g>
<!-- module~c_f_string_m&#45;&gt;program~main -->
<g id="module~~graph~~ModuleGraph_edge2" class="edge">
<title>module~c_f_string_m&#45;&gt;program~main</title>
<path fill="none" stroke="#000000" stroke-dasharray="5,2" d="M73.6894,-127.293C88.5041,-121.8588 106.6492,-115.2029 122.3906,-109.4288"/>
<polygon fill="#000000" stroke="#000000" points="123.647,-112.696 131.8299,-105.9663 121.2363,-106.1242 123.647,-112.696"/>
</g>
<!-- proc~c_f_string -->
<g id="module~~graph~~ModuleGraph_node3" class="node">
<title>proc~c_f_string</title>
<g id="a_module~~graph~~ModuleGraph_node3"><a xlink:href="../proc/c_f_string.html" xlink:title="c_f_string">
<polygon fill="#d9534f" stroke="#d9534f" points="186,-66 132,-66 132,-42 186,-42 186,-66"/>
<text text-anchor="middle" x="159" y="-51.6" font-family="Helvetica,sans-Serif" font-size="10.50" fill="#ffffff">c_f_string</text>
</a>
</g>
</g>
<!-- proc~c_str_to_fortran -->
<g id="module~~graph~~ModuleGraph_node4" class="node">
<title>proc~c_str_to_fortran</title>
<g id="a_module~~graph~~ModuleGraph_node4"><a xlink:href="../proc/c_str_to_fortran.html" xlink:title="c_str_to_fortran">
<polygon fill="#d94e8f" stroke="#d94e8f" points="193,-24 125,-24 125,0 193,0 193,-24"/>
<text text-anchor="middle" x="159" y="-9.6" font-family="Helvetica,sans-Serif" font-size="10.50" fill="#ffffff">c_str_to_fortran</text>
</a>
</g>
</g>
<!-- ISO_C_BINDING -->
<g id="module~~graph~~ModuleGraph_node5" class="node">
<title>ISO_C_BINDING</title>
<g id="a_module~~graph~~ModuleGraph_node5"><a xlink:href="https://gcc.gnu.org/onlinedocs/gfortran/ISO_005fC_005fBINDING.html" xlink:title="ISO_C_BINDING">
<polygon fill="#337ab7" stroke="#337ab7" points="81,-66 8,-66 8,-42 81,-42 81,-66"/>
<text text-anchor="middle" x="44.5" y="-51.6" font-family="Helvetica,sans-Serif" font-size="10.50" fill="#ffffff">ISO_C_BINDING</text>
</a>
</g>
</g>
<!-- ISO_C_BINDING&#45;&gt;program~main -->
<g id="module~~graph~~ModuleGraph_edge1" class="edge">
<title>ISO_C_BINDING&#45;&gt;program~main</title>
<path fill="none" stroke="#000000" stroke-dasharray="5,2" d="M77.3111,-66.0355C91.3785,-71.1956 107.8695,-77.2447 122.337,-82.5516"/>
<polygon fill="#000000" stroke="#000000" points="121.3813,-85.929 131.975,-86.0869 123.792,-79.3572 121.3813,-85.929"/>
</g>
<!-- ISO_C_BINDING&#45;&gt;proc~c_f_string -->
<g id="module~~graph~~ModuleGraph_edge4" class="edge">
<title>ISO_C_BINDING&#45;&gt;proc~c_f_string</title>
<path fill="none" stroke="#000000" stroke-dasharray="5,2" d="M81.0433,-54C94.0572,-54 108.7209,-54 121.79,-54"/>
<polygon fill="#000000" stroke="#000000" points="121.8674,-57.5001 131.8674,-54 121.8673,-50.5001 121.8674,-57.5001"/>
</g>
<!-- ISO_C_BINDING&#45;&gt;proc~c_str_to_fortran -->
<g id="module~~graph~~ModuleGraph_edge5" class="edge">
<title>ISO_C_BINDING&#45;&gt;proc~c_str_to_fortran</title>
<path fill="none" stroke="#000000" stroke-dasharray="5,2" d="M77.3111,-41.9645C89.5282,-37.4831 103.5732,-32.3312 116.5333,-27.5773"/>
<polygon fill="#000000" stroke="#000000" points="118.0011,-30.767 126.1841,-24.0373 115.5904,-24.1952 118.0011,-30.767"/>
</g>
<!-- ISO_FORTRAN_ENV -->
<g id="module~~graph~~ModuleGraph_node6" class="node">
<title>ISO_FORTRAN_ENV</title>
<g id="a_module~~graph~~ModuleGraph_node6"><a xlink:href="https://gcc.gnu.org/onlinedocs/gfortran/ISO_005fFORTRAN_005fENV.html" xlink:title="ISO_FORTRAN_ENV">
<polygon fill="#337ab7" stroke="#337ab7" points="89,-108 0,-108 0,-84 89,-84 89,-108"/>
<text text-anchor="middle" x="44.5" y="-93.6" font-family="Helvetica,sans-Serif" font-size="10.50" fill="#ffffff">ISO_FORTRAN_ENV</text>
</a>
</g>
</g>
<!-- ISO_FORTRAN_ENV&#45;&gt;program~main -->
<g id="module~~graph~~ModuleGraph_edge3" class="edge">
<title>ISO_FORTRAN_ENV&#45;&gt;program~main</title>
<path fill="none" stroke="#000000" stroke-dasharray="5,2" d="M89.0966,-96C99.9282,-96 111.396,-96 121.8418,-96"/>
<polygon fill="#000000" stroke="#000000" points="121.8855,-99.5001 131.8855,-96 121.8855,-92.5001 121.8855,-99.5001"/>
</g>
</g>
</svg>
