<?xml version="1.0" encoding="UTF-8" standalone="no"?>
<!DOCTYPE svg PUBLIC "-//W3C//DTD SVG 1.1//EN"
 "http://www.w3.org/Graphics/SVG/1.1/DTD/svg11.dtd">
<!-- Generated by graphviz version 2.40.1 (20161225.0304)
 -->
<!-- Title: proc~~c_f_string~~CallsGraph Pages: 1 -->
<svg width="198pt" height="74pt"
 viewBox="0.00 0.00 198.00 74.00" xmlns="http://www.w3.org/2000/svg" xmlns:xlink="http://www.w3.org/1999/xlink">
<g id="proc~~c_f_string~~CallsGraph" class="graph" transform="scale(1 1) rotate(0) translate(4 70)">
<title>proc~~c_f_string~~CallsGraph</title>
<polygon fill="#ffffff" stroke="transparent" points="-4,4 -4,-70 194,-70 194,4 -4,4"/>
<!-- proc~c_f_string -->
<g id="proc~~c_f_string~~CallsGraph_node1" class="node">
<title>proc~c_f_string</title>
<polygon fill="none" stroke="#000000" points="54,-45 0,-45 0,-21 54,-21 54,-45"/>
<text text-anchor="middle" x="27" y="-30.6" font-family="Helvetica,sans-Serif" font-size="10.50" fill="#000000">c_f_string</text>
</g>
<!-- interface~strlen -->
<g id="proc~~c_f_string~~CallsGraph_node2" class="node">
<title>interface~strlen</title>
<g id="a_proc~~c_f_string~~CallsGraph_node2"><a xlink:href="../interface/strlen.html" xlink:title="strlen">
<polygon fill="#a7506f" stroke="#a7506f" points="167,-66 113,-66 113,-42 167,-42 167,-66"/>
<text text-anchor="middle" x="140" y="-51.6" font-family="Helvetica,sans-Serif" font-size="10.50" fill="#ffffff">strlen</text>
</a>
</g>
</g>
<!-- proc~c_f_string&#45;&gt;interface~strlen -->
<g id="proc~~c_f_string~~CallsGraph_edge1" class="edge">
<title>proc~c_f_string&#45;&gt;interface~strlen</title>
<path fill="none" stroke="#000000" d="M54.0663,-38.03C68.6348,-40.7374 86.8257,-44.118 102.7149,-47.0709"/>
<polygon fill="#000000" stroke="#000000" points="102.2917,-50.5521 112.7629,-48.9382 103.5708,-43.67 102.2917,-50.5521"/>
</g>
<!-- none~char_array_to_scalar_ptr -->
<g id="proc~~c_f_string~~CallsGraph_node3" class="node">
<title>none~char_array_to_scalar_ptr</title>
<polygon fill="#d9534f" stroke="#d9534f" points="190,-24 90,-24 90,0 190,0 190,-24"/>
<text text-anchor="middle" x="140" y="-9.6" font-family="Helvetica,sans-Serif" font-size="10.50" fill="#ffffff">char_array_to_scalar_ptr</text>
</g>
<!-- proc~c_f_string&#45;&gt;none~char_array_to_scalar_ptr -->
<g id="proc~~c_f_string~~CallsGraph_edge2" class="edge">
<title>proc~c_f_string&#45;&gt;none~char_array_to_scalar_ptr</title>
<path fill="none" stroke="#000000" d="M54.0663,-27.97C61.8464,-26.5241 70.6595,-24.8863 79.6035,-23.2241"/>
<polygon fill="#000000" stroke="#000000" points="80.5169,-26.6144 89.709,-21.3461 79.2379,-19.7322 80.5169,-26.6144"/>
</g>
</g>
</svg>
