<?xml version="1.0" encoding="UTF-8" standalone="no"?>
<!DOCTYPE svg PUBLIC "-//W3C//DTD SVG 1.1//EN"
 "http://www.w3.org/Graphics/SVG/1.1/DTD/svg11.dtd">
<!-- Generated by graphviz version 2.40.1 (20161225.0304)
 -->
<!-- Title: program~~main~~UsesGraph Pages: 1 -->
<svg width="187pt" height="116pt"
 viewBox="0.00 0.00 187.00 116.00" xmlns="http://www.w3.org/2000/svg" xmlns:xlink="http://www.w3.org/1999/xlink">
<g id="program~~main~~UsesGraph" class="graph" transform="scale(1 1) rotate(0) translate(4 112)">
<title>program~~main~~UsesGraph</title>
<polygon fill="#ffffff" stroke="transparent" points="-4,4 -4,-112 183,-112 183,4 -4,4"/>
<!-- program~main -->
<g id="program~~main~~UsesGraph_node1" class="node">
<title>program~main</title>
<polygon fill="none" stroke="#000000" points="179,-66 125,-66 125,-42 179,-42 179,-66"/>
<text text-anchor="middle" x="152" y="-51.6" font-family="Helvetica,sans-Serif" font-size="10.50" fill="#000000">main</text>
</g>
<!-- ISO_C_BINDING -->
<g id="program~~main~~UsesGraph_node2" class="node">
<title>ISO_C_BINDING</title>
<g id="a_program~~main~~UsesGraph_node2"><a xlink:href="https://gcc.gnu.org/onlinedocs/gfortran/ISO_005fC_005fBINDING.html" xlink:title="ISO_C_BINDING">
<polygon fill="#337ab7" stroke="#337ab7" points="81,-108 8,-108 8,-84 81,-84 81,-108"/>
<text text-anchor="middle" x="44.5" y="-93.6" font-family="Helvetica,sans-Serif" font-size="10.50" fill="#ffffff">ISO_C_BINDING</text>
</a>
</g>
</g>
<!-- ISO_C_BINDING&#45;&gt;program~main -->
<g id="program~~main~~UsesGraph_edge1" class="edge">
<title>ISO_C_BINDING&#45;&gt;program~main</title>
<path fill="none" stroke="#000000" stroke-dasharray="5,2" d="M75.3052,-83.9645C87.7642,-79.0968 102.2481,-73.438 115.2518,-68.3574"/>
<polygon fill="#000000" stroke="#000000" points="116.8087,-71.5069 124.8493,-64.6077 114.2613,-64.9868 116.8087,-71.5069"/>
</g>
<!-- module~c_f_string_m -->
<g id="program~~main~~UsesGraph_node3" class="node">
<title>module~c_f_string_m</title>
<g id="a_program~~main~~UsesGraph_node3"><a xlink:href="../module/c_f_string_m.html" xlink:title="c_f_string_m">
<polygon fill="#337ab7" stroke="#337ab7" points="73.5,-66 15.5,-66 15.5,-42 73.5,-42 73.5,-66"/>
<text text-anchor="middle" x="44.5" y="-51.6" font-family="Helvetica,sans-Serif" font-size="10.50" fill="#ffffff">c_f_string_m</text>
</a>
</g>
</g>
<!-- module~c_f_string_m&#45;&gt;program~main -->
<g id="program~~main~~UsesGraph_edge2" class="edge">
<title>module~c_f_string_m&#45;&gt;program~main</title>
<path fill="none" stroke="#000000" stroke-dasharray="5,2" d="M73.591,-54C86.1516,-54 101.0058,-54 114.3887,-54"/>
<polygon fill="#000000" stroke="#000000" points="114.7343,-57.5001 124.7342,-54 114.7342,-50.5001 114.7343,-57.5001"/>
</g>
<!-- ISO_FORTRAN_ENV -->
<g id="program~~main~~UsesGraph_node4" class="node">
<title>ISO_FORTRAN_ENV</title>
<g id="a_program~~main~~UsesGraph_node4"><a xlink:href="https://gcc.gnu.org/onlinedocs/gfortran/ISO_005fFORTRAN_005fENV.html" xlink:title="ISO_FORTRAN_ENV">
<polygon fill="#337ab7" stroke="#337ab7" points="89,-24 0,-24 0,0 89,0 89,-24"/>
<text text-anchor="middle" x="44.5" y="-9.6" font-family="Helvetica,sans-Serif" font-size="10.50" fill="#ffffff">ISO_FORTRAN_ENV</text>
</a>
</g>
</g>
<!-- ISO_FORTRAN_ENV&#45;&gt;program~main -->
<g id="program~~main~~UsesGraph_edge3" class="edge">
<title>ISO_FORTRAN_ENV&#45;&gt;program~main</title>
<path fill="none" stroke="#000000" stroke-dasharray="5,2" d="M75.3052,-24.0355C87.7642,-28.9032 102.2481,-34.562 115.2518,-39.6426"/>
<polygon fill="#000000" stroke="#000000" points="114.2613,-43.0132 124.8493,-43.3923 116.8087,-36.4931 114.2613,-43.0132"/>
</g>
</g>
</svg>
