<?xml version="1.0" encoding="UTF-8" standalone="no"?>
<!DOCTYPE svg PUBLIC "-//W3C//DTD SVG 1.1//EN"
 "http://www.w3.org/Graphics/SVG/1.1/DTD/svg11.dtd">
<!-- Generated by graphviz version 2.40.1 (20161225.0304)
 -->
<!-- Title: interface~~strlen~~CalledByGraph Pages: 1 -->
<svg width="346pt" height="52pt"
 viewBox="0.00 0.00 346.00 52.00" xmlns="http://www.w3.org/2000/svg" xmlns:xlink="http://www.w3.org/1999/xlink">
<g id="interface~~strlen~~CalledByGraph" class="graph" transform="scale(1 1) rotate(0) translate(4 48)">
<title>interface~~strlen~~CalledByGraph</title>
<polygon fill="#ffffff" stroke="transparent" points="-4,4 -4,-48 342,-48 342,4 -4,4"/>
<!-- interface~strlen -->
<g id="interface~~strlen~~CalledByGraph_node1" class="node">
<title>interface~strlen</title>
<polygon fill="none" stroke="#000000" points="338,-44 284,-44 284,-20 338,-20 338,-44"/>
<text text-anchor="middle" x="311" y="-29.6" font-family="Helvetica,sans-Serif" font-size="10.50" fill="#000000">strlen</text>
</g>
<!-- proc~c_f_string -->
<g id="interface~~strlen~~CalledByGraph_node2" class="node">
<title>proc~c_f_string</title>
<g id="a_interface~~strlen~~CalledByGraph_node2"><a xlink:href="../proc/c_f_string.html" xlink:title="c_f_string">
<polygon fill="#d9534f" stroke="#d9534f" points="248,-44 194,-44 194,-20 248,-20 248,-44"/>
<text text-anchor="middle" x="221" y="-29.6" font-family="Helvetica,sans-Serif" font-size="10.50" fill="#ffffff">c_f_string</text>
</a>
</g>
</g>
<!-- proc~c_f_string&#45;&gt;interface~strlen -->
<g id="interface~~strlen~~CalledByGraph_edge4" class="edge">
<title>proc~c_f_string&#45;&gt;interface~strlen</title>
<path fill="none" stroke="#000000" d="M248.003,-32C256.0277,-32 264.9665,-32 273.5309,-32"/>
<polygon fill="#000000" stroke="#000000" points="273.7051,-35.5001 283.705,-32 273.705,-28.5001 273.7051,-35.5001"/>
</g>
<!-- proc~c_str_to_fortran -->
<g id="interface~~strlen~~CalledByGraph_node3" class="node">
<title>proc~c_str_to_fortran</title>
<g id="a_interface~~strlen~~CalledByGraph_node3"><a xlink:href="../proc/c_str_to_fortran.html" xlink:title="c_str_to_fortran">
<polygon fill="#d94e8f" stroke="#d94e8f" points="158,-24 90,-24 90,0 158,0 158,-24"/>
<text text-anchor="middle" x="124" y="-9.6" font-family="Helvetica,sans-Serif" font-size="10.50" fill="#ffffff">c_str_to_fortran</text>
</a>
</g>
</g>
<!-- proc~c_str_to_fortran&#45;&gt;proc~c_f_string -->
<g id="interface~~strlen~~CalledByGraph_edge2" class="edge">
<title>proc~c_str_to_fortran&#45;&gt;proc~c_f_string</title>
<path fill="none" stroke="#000000" d="M158.1986,-19.0513C166.497,-20.7623 175.409,-22.5998 183.837,-24.3375"/>
<polygon fill="#000000" stroke="#000000" points="183.3029,-27.801 193.8037,-26.3925 184.7165,-20.9452 183.3029,-27.801"/>
</g>
<!-- program~main -->
<g id="interface~~strlen~~CalledByGraph_node4" class="node">
<title>program~main</title>
<g id="a_interface~~strlen~~CalledByGraph_node4"><a xlink:href="../program/main.html" xlink:title="main">
<polygon fill="#f0ad4e" stroke="#f0ad4e" points="54,-44 0,-44 0,-20 54,-20 54,-44"/>
<text text-anchor="middle" x="27" y="-29.6" font-family="Helvetica,sans-Serif" font-size="10.50" fill="#ffffff">main</text>
</a>
</g>
</g>
<!-- program~main&#45;&gt;proc~c_f_string -->
<g id="interface~~strlen~~CalledByGraph_edge3" class="edge">
<title>program~main&#45;&gt;proc~c_f_string</title>
<path fill="none" stroke="#000000" d="M54.2876,-32.5275C65.3696,-32.7172 78.2958,-32.9071 90,-33 120.2213,-33.2398 127.7787,-33.2398 158,-33 166.2295,-32.9347 175.0632,-32.8214 183.4351,-32.694"/>
<polygon fill="#000000" stroke="#000000" points="183.7704,-36.1891 193.7124,-32.5275 183.657,-29.19 183.7704,-36.1891"/>
</g>
<!-- program~main&#45;&gt;proc~c_str_to_fortran -->
<g id="interface~~strlen~~CalledByGraph_edge1" class="edge">
<title>program~main&#45;&gt;proc~c_str_to_fortran</title>
<path fill="none" stroke="#000000" d="M54.0199,-26.4289C62.0843,-24.7661 71.1417,-22.8986 79.9973,-21.0727"/>
<polygon fill="#000000" stroke="#000000" points="80.759,-24.4894 89.8462,-19.042 79.3454,-17.6336 80.759,-24.4894"/>
</g>
</g>
</svg>
