<?xml version="1.0" encoding="UTF-8" standalone="no"?>
<!DOCTYPE svg PUBLIC "-//W3C//DTD SVG 1.1//EN"
 "http://www.w3.org/Graphics/SVG/1.1/DTD/svg11.dtd">
<!-- Generated by graphviz version 2.40.1 (20161225.0304)
 -->
<!-- Title: proc~~c_str_to_fortran~~CallsGraph Pages: 1 -->
<svg width="302pt" height="74pt"
 viewBox="0.00 0.00 302.00 74.00" xmlns="http://www.w3.org/2000/svg" xmlns:xlink="http://www.w3.org/1999/xlink">
<g id="proc~~c_str_to_fortran~~CallsGraph" class="graph" transform="scale(1 1) rotate(0) translate(4 70)">
<title>proc~~c_str_to_fortran~~CallsGraph</title>
<polygon fill="#ffffff" stroke="transparent" points="-4,4 -4,-70 298,-70 298,4 -4,4"/>
<!-- proc~c_str_to_fortran -->
<g id="proc~~c_str_to_fortran~~CallsGraph_node1" class="node">
<title>proc~c_str_to_fortran</title>
<polygon fill="none" stroke="#000000" points="68,-45 0,-45 0,-21 68,-21 68,-45"/>
<text text-anchor="middle" x="34" y="-30.6" font-family="Helvetica,sans-Serif" font-size="10.50" fill="#000000">c_str_to_fortran</text>
</g>
<!-- proc~c_f_string -->
<g id="proc~~c_str_to_fortran~~CallsGraph_node2" class="node">
<title>proc~c_f_string</title>
<g id="a_proc~~c_str_to_fortran~~CallsGraph_node2"><a xlink:href="../proc/c_f_string.html" xlink:title="c_f_string">
<polygon fill="#d9534f" stroke="#d9534f" points="158,-45 104,-45 104,-21 158,-21 158,-45"/>
<text text-anchor="middle" x="131" y="-30.6" font-family="Helvetica,sans-Serif" font-size="10.50" fill="#ffffff">c_f_string</text>
</a>
</g>
</g>
<!-- proc~c_str_to_fortran&#45;&gt;proc~c_f_string -->
<g id="proc~~c_str_to_fortran~~CallsGraph_edge3" class="edge">
<title>proc~c_str_to_fortran&#45;&gt;proc~c_f_string</title>
<path fill="none" stroke="#000000" d="M68.1986,-33C76.4058,-33 85.2132,-33 93.559,-33"/>
<polygon fill="#000000" stroke="#000000" points="93.8037,-36.5001 103.8037,-33 93.8037,-29.5001 93.8037,-36.5001"/>
</g>
<!-- interface~strlen -->
<g id="proc~~c_str_to_fortran~~CallsGraph_node3" class="node">
<title>interface~strlen</title>
<g id="a_proc~~c_str_to_fortran~~CallsGraph_node3"><a xlink:href="../interface/strlen.html" xlink:title="strlen">
<polygon fill="#a7506f" stroke="#a7506f" points="271,-66 217,-66 217,-42 271,-42 271,-66"/>
<text text-anchor="middle" x="244" y="-51.6" font-family="Helvetica,sans-Serif" font-size="10.50" fill="#ffffff">strlen</text>
</a>
</g>
</g>
<!-- proc~c_f_string&#45;&gt;interface~strlen -->
<g id="proc~~c_str_to_fortran~~CallsGraph_edge1" class="edge">
<title>proc~c_f_string&#45;&gt;interface~strlen</title>
<path fill="none" stroke="#000000" d="M158.0663,-38.03C172.6348,-40.7374 190.8257,-44.118 206.7149,-47.0709"/>
<polygon fill="#000000" stroke="#000000" points="206.2917,-50.5521 216.7629,-48.9382 207.5708,-43.67 206.2917,-50.5521"/>
</g>
<!-- none~char_array_to_scalar_ptr -->
<g id="proc~~c_str_to_fortran~~CallsGraph_node4" class="node">
<title>none~char_array_to_scalar_ptr</title>
<polygon fill="#d9534f" stroke="#d9534f" points="294,-24 194,-24 194,0 294,0 294,-24"/>
<text text-anchor="middle" x="244" y="-9.6" font-family="Helvetica,sans-Serif" font-size="10.50" fill="#ffffff">char_array_to_scalar_ptr</text>
</g>
<!-- proc~c_f_string&#45;&gt;none~char_array_to_scalar_ptr -->
<g id="proc~~c_str_to_fortran~~CallsGraph_edge2" class="edge">
<title>proc~c_f_string&#45;&gt;none~char_array_to_scalar_ptr</title>
<path fill="none" stroke="#000000" d="M158.0663,-27.97C165.8464,-26.5241 174.6595,-24.8863 183.6035,-23.2241"/>
<polygon fill="#000000" stroke="#000000" points="184.5169,-26.6144 193.709,-21.3461 183.2379,-19.7322 184.5169,-26.6144"/>
</g>
</g>
</svg>
