<?xml version="1.0" encoding="UTF-8" standalone="no"?>
<!DOCTYPE svg PUBLIC "-//W3C//DTD SVG 1.1//EN"
 "http://www.w3.org/Graphics/SVG/1.1/DTD/svg11.dtd">
<!-- Generated by graphviz version 2.40.1 (20161225.0304)
 -->
<!-- Title: program~~main~~CallsGraph Pages: 1 -->
<svg width="396pt" height="94pt"
 viewBox="0.00 0.00 396.00 94.00" xmlns="http://www.w3.org/2000/svg" xmlns:xlink="http://www.w3.org/1999/xlink">
<g id="program~~main~~CallsGraph" class="graph" transform="scale(1 1) rotate(0) translate(4 90)">
<title>program~~main~~CallsGraph</title>
<polygon fill="#ffffff" stroke="transparent" points="-4,4 -4,-90 392,-90 392,4 -4,4"/>
<!-- program~main -->
<g id="program~~main~~CallsGraph_node1" class="node">
<title>program~main</title>
<polygon fill="none" stroke="#000000" points="54,-44 0,-44 0,-20 54,-20 54,-44"/>
<text text-anchor="middle" x="27" y="-29.6" font-family="Helvetica,sans-Serif" font-size="10.50" fill="#000000">main</text>
</g>
<!-- proc~c_str_to_fortran -->
<g id="program~~main~~CallsGraph_node2" class="node">
<title>proc~c_str_to_fortran</title>
<g id="a_program~~main~~CallsGraph_node2"><a xlink:href="../proc/c_str_to_fortran.html" xlink:title="c_str_to_fortran">
<polygon fill="#d94e8f" stroke="#d94e8f" points="160,-86 92,-86 92,-62 160,-62 160,-86"/>
<text text-anchor="middle" x="126" y="-71.6" font-family="Helvetica,sans-Serif" font-size="10.50" fill="#ffffff">c_str_to_fortran</text>
</a>
</g>
</g>
<!-- program~main&#45;&gt;proc~c_str_to_fortran -->
<g id="program~~main~~CallsGraph_edge4" class="edge">
<title>program~main&#45;&gt;proc~c_str_to_fortran</title>
<path fill="none" stroke="#000000" d="M54.0522,-43.4767C64.6077,-47.9548 76.891,-53.1659 88.2888,-58.0013"/>
<polygon fill="#000000" stroke="#000000" points="87.0247,-61.2669 97.5974,-61.9504 89.7585,-54.8228 87.0247,-61.2669"/>
</g>
<!-- interface~speciesname_c -->
<g id="program~~main~~CallsGraph_node3" class="node">
<title>interface~speciesname_c</title>
<g id="a_program~~main~~CallsGraph_node3"><a xlink:href="../interface/speciesname_c.html" xlink:title="SpeciesName_C">
<polygon fill="#a7506f" stroke="#a7506f" points="162,-44 90,-44 90,-20 162,-20 162,-44"/>
<text text-anchor="middle" x="126" y="-29.6" font-family="Helvetica,sans-Serif" font-size="10.50" fill="#ffffff">SpeciesName_C</text>
</a>
</g>
</g>
<!-- program~main&#45;&gt;interface~speciesname_c -->
<g id="program~~main~~CallsGraph_edge5" class="edge">
<title>program~main&#45;&gt;interface~speciesname_c</title>
<path fill="none" stroke="#000000" d="M54.0522,-32C61.9527,-32 70.8212,-32 79.5618,-32"/>
<polygon fill="#000000" stroke="#000000" points="79.6982,-35.5001 89.6982,-32 79.6982,-28.5001 79.6982,-35.5001"/>
</g>
<!-- proc~c_f_string -->
<g id="program~~main~~CallsGraph_node4" class="node">
<title>proc~c_f_string</title>
<g id="a_program~~main~~CallsGraph_node4"><a xlink:href="../proc/c_f_string.html" xlink:title="c_f_string">
<polygon fill="#d9534f" stroke="#d9534f" points="252,-45 198,-45 198,-21 252,-21 252,-45"/>
<text text-anchor="middle" x="225" y="-30.6" font-family="Helvetica,sans-Serif" font-size="10.50" fill="#ffffff">c_f_string</text>
</a>
</g>
</g>
<!-- program~main&#45;&gt;proc~c_f_string -->
<g id="program~~main~~CallsGraph_edge6" class="edge">
<title>program~main&#45;&gt;proc~c_f_string</title>
<path fill="none" stroke="#000000" d="M54.1165,-20.8359C65.0624,-16.8944 77.9369,-12.9576 90,-11 121.5868,-5.8742 130.4504,-5.6498 162,-11 170.7022,-12.4757 179.8047,-15.0216 188.2984,-17.87"/>
<polygon fill="#000000" stroke="#000000" points="187.3345,-21.2422 197.9292,-21.3067 189.6872,-14.6494 187.3345,-21.2422"/>
</g>
<!-- proc~c_str_to_fortran&#45;&gt;proc~c_f_string -->
<g id="program~~main~~CallsGraph_edge1" class="edge">
<title>proc~c_str_to_fortran&#45;&gt;proc~c_f_string</title>
<path fill="none" stroke="#000000" d="M155.1678,-61.9204C165.5787,-57.6088 177.4419,-52.6958 188.3988,-48.1581"/>
<polygon fill="#000000" stroke="#000000" points="189.8351,-51.3516 197.7349,-44.2916 187.1567,-44.8843 189.8351,-51.3516"/>
</g>
<!-- interface~strlen -->
<g id="program~~main~~CallsGraph_node5" class="node">
<title>interface~strlen</title>
<g id="a_program~~main~~CallsGraph_node5"><a xlink:href="../interface/strlen.html" xlink:title="strlen">
<polygon fill="#a7506f" stroke="#a7506f" points="365,-66 311,-66 311,-42 365,-42 365,-66"/>
<text text-anchor="middle" x="338" y="-51.6" font-family="Helvetica,sans-Serif" font-size="10.50" fill="#ffffff">strlen</text>
</a>
</g>
</g>
<!-- proc~c_f_string&#45;&gt;interface~strlen -->
<g id="program~~main~~CallsGraph_edge2" class="edge">
<title>proc~c_f_string&#45;&gt;interface~strlen</title>
<path fill="none" stroke="#000000" d="M252.0663,-38.03C266.6348,-40.7374 284.8257,-44.118 300.7149,-47.0709"/>
<polygon fill="#000000" stroke="#000000" points="300.2917,-50.5521 310.7629,-48.9382 301.5708,-43.67 300.2917,-50.5521"/>
</g>
<!-- none~char_array_to_scalar_ptr -->
<g id="program~~main~~CallsGraph_node6" class="node">
<title>none~char_array_to_scalar_ptr</title>
<polygon fill="#d9534f" stroke="#d9534f" points="388,-24 288,-24 288,0 388,0 388,-24"/>
<text text-anchor="middle" x="338" y="-9.6" font-family="Helvetica,sans-Serif" font-size="10.50" fill="#ffffff">char_array_to_scalar_ptr</text>
</g>
<!-- proc~c_f_string&#45;&gt;none~char_array_to_scalar_ptr -->
<g id="program~~main~~CallsGraph_edge3" class="edge">
<title>proc~c_f_string&#45;&gt;none~char_array_to_scalar_ptr</title>
<path fill="none" stroke="#000000" d="M252.0663,-27.97C259.8464,-26.5241 268.6595,-24.8863 277.6035,-23.2241"/>
<polygon fill="#000000" stroke="#000000" points="278.5169,-26.6144 287.709,-21.3461 277.2379,-19.7322 278.5169,-26.6144"/>
</g>
</g>
</svg>
